{"title":"Breaking Bad S1 Español Spanish","uid":8988703,"size":11354099760,"categoryP":"video","categoryS":"hd___tv_shows","magnet":"?xt=urn:btih:a8a12f6ad58e5584769a21b0b843c152c05333b6&amp;dn=Breaking+Bad+S1+Espa%26ntilde%3Bol+Spanish&amp;tr=udp%3A%2F%2Ftracker.openbittorrent.com%3A80&amp;tr=udp%3A%2F%2Fopen.demonii.com%3A1337&amp;tr=udp%3A%2F%2Ftracker.coppersurfer.tk%3A6969&amp;tr=udp%3A%2F%2Fexodus.desync.com%3A6969","seeders":11,"leechers":0,"uploader":"sichi69","files":-1,"time":1380740027,"description":"General\nUnique ID                                : 194362737062814247564457850791525363861 (0x9238E6CB35ADBE8A966CAA916FB03095)\nComplete name                            : F:TorrentBreaking Bad S1Breaking Bad 1x01 - Pilot [HDTV][720p][x264][Dual].mkv\nFormat                                   : Matroska\nFormat version                           : Version 1\nFile size                                : 1.51 GiB\nDuration                                 : 46mn 7s\nOverall bit rate                         : 4 689 Kbps\nEncoded date                             : UTC 2009-03-13 11:20:37\nWriting application                      : mkvmerge v2.1.0 ('Another Place To Fall') built on Aug 19 2007 13:40:07\nWriting library                          : libebml v0.7.7 + libmatroska v0.8.1\n\nVideo\nID                                       : 1\nFormat                                   : AVC\nFormat/Info                              : Advanced Video Codec\nFormat profile                           : &lt;a class=&quot;__cf_email__&quot; href=&quot;/cdn-cgi/l/email-protection&quot; data-cfemail=&quot;054d6c626d4549312b34&quot;&gt;[email&amp;#160;protected]&lt;/a&gt;&lt;script cf-hash='f9e31' type=&quot;text/javascript&quot;&gt;\n/* &lt;![CDATA[ */!function(){try{var t=&quot;currentScript&quot;in document?document.currentScript:function(){for(var t=document.getElementsByTagName(&quot;script&quot;),e=t.length;e--;)if(t[e].getAttribute(&quot;cf-hash&quot;))return t[e]}();if(t&amp;&amp;t.previousSibling){var e,r,n,i,c=t.previousSibling,a=c.getAttribute(&quot;data-cfemail&quot;);if(a){for(e=&quot;&quot;,r=parseInt(a.substr(0,2),16),n=2;a.length-n;n+=2)i=parseInt(a.substr(n,2),16)^r,e+=String.fromCharCode(i);e=document.createTextNode(e),c.parentNode.replaceChild(e,c)}}}catch(u){}}();/* ]]&gt; */&lt;/script&gt;\nFormat settings, CABAC                   : Yes\nFormat settings, ReFrames                : 6 frames\nCodec ID                                 : V_MPEG4/ISO/AVC\nDuration                                 : 46mn 7s\nBit rate                                 : 4 110 Kbps\nWidth                                    : 1 280 pixels\nHeight                                   : 720 pixels\nDisplay aspect ratio                     : 16:9\nFrame rate mode                          : Constant\nFrame rate                               : 25.000 fps\nColor space                              : YUV\nChroma subsampling                       : 4:2:0\nBit depth                                : 8 bits\nScan type                                : Progressive\nBits/(Pixel*Frame)                       : 0.178\nStream size                              : 1.30 GiB (86%)\nWriting library                          : x264 core 66 r1115M 11863ac\nEncoding settings                        : cabac=1 // deblock=1:-2:-1 / analyse=0x3:0x133 / me=esa / subme=9 / psy_rd=2.0:0.0 // me_range=32 / chroma_me=1 / trellis=2 / 8x8dct=1 / cqm=0 / deadzone=21,11 / chroma_qp_offset=-2 / threads=12 / nr=0 / decimate=0 / mbaff=0 / bframes=6 / b_pyramid=1 / b_adapt=2 / b_bias=0 / direct=3 / wpredb=1 / keyint=250 / keyint_min=25 / scenecut=40(pre) / rc=2pass / bitrate=4110 / ratetol=1.0 / qcomp=0.60 / qpmin=10 / qpmax=51 / qpstep=4 / cplxblur=20.0 / qblur=0.5 / ip_ratio=1.40 / pb_ratio=1.30 / aq=1:1.00\nLanguage                                 : English\nDefault                                  : Yes\nForced                                   : No\n\nAudio #1\nID                                       : 2\nFormat                                   : AC-3\nFormat/Info                              : Audio Coding 3\nMode extension                           : CM (complete main)\nFormat settings, Endianness              : Big\nCodec ID                                 : A_AC3\nDuration                                 : 46mn 7s\nBit rate mode                            : Constant\nBit rate                                 : 192 Kbps\nChannel(s)                               : 2 channels\nChannel positions                        : Front: L R\nSampling rate                            : 48.0 KHz\nBit depth                                : 16 bits\nCompression mode                         : Lossy\nStream size                              : 63.3 MiB (4%)\nLanguage                                 : Spanish\nDefault                                  : No\nForced                                   : No\n\nAudio #2\nID                                       : 3\nFormat                                   : AC-3\nFormat/Info                              : Audio Coding 3\nMode extension                           : CM (complete main)\nFormat settings, Endianness              : Big\nCodec ID                                 : A_AC3\nDuration                                 : 46mn 7s\nBit rate mode                            : Constant\nBit rate                                 : 384 Kbps\nChannel(s)                               : 2 channels\nChannel positions                        : Front: L R\nSampling rate                            : 48.0 KHz\nBit depth                                : 16 bits\nCompression mode                         : Lossy\nStream size                              : 127 MiB (8%)\nLanguage                                 : English\nDefault                                  : No\nForced                                   : No\n","torrent":{"xt":"urn:btih:a8a12f6ad58e5584769a21b0b843c152c05333b6","amp;dn":"Breaking+Bad+S1+Espa%26ntilde%3Bol+Spanish","amp;tr":["udp%3A%2F%2Ftracker.openbittorrent.com%3A80","udp%3A%2F%2Fopen.demonii.com%3A1337","udp%3A%2F%2Ftracker.coppersurfer.tk%3A6969","udp%3A%2F%2Fexodus.desync.com%3A6969"],"infoHash":"a8a12f6ad58e5584769a21b0b843c152c05333b6","infoHashBuffer":{"type":"Buffer","data":[168,161,47,106,213,142,85,132,118,154,33,176,184,67,193,82,192,83,51,182]},"announce":[],"urlList":[]}}